name rise34.3697peak60.0498fall86.3158.mot
datacolumns 19
datarows 26
range 17.42326700000000 17.46493200000000
endheader
time	ground_force1_vx	ground_force1_vy	ground_force1_vz	ground_force1_px	ground_force1_py	ground_force1_pz	ground_force2_vx	ground_force2_vy	ground_force2_vz	ground_force2_px	ground_force2_py	ground_force2_pz	ground_torque1_x	ground_torque1_y	ground_torque1_z	ground_torque2_x	ground_torque2_y	ground_torque2_z	
17.42326700000000	-47.91909600000000	843.77382999999998	54.15915500000000	0.18691100000000	0.00000000000000	0.10633700000000	-6.58506500000000	20.28847600000000	6.05106100000000	0.00000000000000	0.00000000000000	0.00000000000000	0.00000000000000	28.72837600000000	0.00000000000000	0.00000000000000	2.59593600000000	0.00000000000000	
17.42493700000000	-48.22861500000000	842.23386000000005	54.09705800000000	0.18625000000000	0.00000000000000	0.10633200000000	-8.01165800000000	25.59849700000000	7.45080800000000	0.43315200000000	0.00000000000000	-0.05032100000000	0.00000000000000	28.63205300000000	0.00000000000000	0.00000000000000	6.02602600000000	0.00000000000000	
17.42660000000000	-48.55295800000000	840.56131600000003	54.01330100000000	0.18559200000000	0.00000000000000	0.10632500000000	-9.41902100000000	31.17370200000000	8.86270300000000	0.43670500000000	0.00000000000000	-0.05114200000000	0.00000000000000	28.53291400000000	0.00000000000000	0.00000000000000	7.20369300000000	0.00000000000000	
17.42826400000000	-48.89299400000000	838.75552300000004	53.90761900000000	0.18493600000000	0.00000000000000	0.10631500000000	-10.75769400000000	36.88945900000000	10.24313200000000	0.43993000000000	0.00000000000000	-0.05192300000000	0.00000000000000	28.43118100000000	0.00000000000000	0.00000000000000	8.36463300000000	0.00000000000000	
17.42993000000000	-49.24953400000000	836.81581800000004	53.77977800000000	0.18428400000000	0.00000000000000	0.10630200000000	-11.98277000000000	42.62691100000000	11.55171600000000	0.44286200000000	0.00000000000000	-0.05267100000000	0.00000000000000	28.32707000000000	0.00000000000000	0.00000000000000	9.47520800000000	0.00000000000000	
17.43159900000000	-49.62332400000000	834.74154899999996	53.62957400000000	0.18363300000000	0.00000000000000	0.10628700000000	-13.05688700000000	48.28178800000000	12.75404300000000	0.44553300000000	0.00000000000000	-0.05338900000000	0.00000000000000	28.22079200000000	0.00000000000000	0.00000000000000	10.50640100000000	0.00000000000000	
17.43327000000000	-50.01503800000000	832.53206499999999	53.45683500000000	0.18298400000000	0.00000000000000	0.10627000000000	-13.95225800000000	53.77098600000000	13.82358800000000	0.44796900000000	0.00000000000000	-0.05408100000000	0.00000000000000	28.11255400000000	0.00000000000000	0.00000000000000	11.43549800000000	0.00000000000000	
17.43493800000000	-50.42527600000000	830.18671400000005	53.26141900000000	0.18233500000000	0.00000000000000	0.10624900000000	-14.65165500000000	59.03649300000000	14.74273400000000	0.45019300000000	0.00000000000000	-0.05474900000000	0.00000000000000	28.00255300000000	0.00000000000000	0.00000000000000	12.24702700000000	0.00000000000000	
17.43660200000000	-50.85455800000000	827.70483500000000	53.04321600000000	0.18168800000000	0.00000000000000	0.10622600000000	-15.14837600000000	64.04664200000001	15.50290400000000	0.45222600000000	0.00000000000000	-0.05539700000000	0.00000000000000	27.89097900000000	0.00000000000000	0.00000000000000	12.93295000000000	0.00000000000000	
17.43826400000000	-51.30332000000000	825.08576100000005	52.80214700000000	0.18104100000000	0.00000000000000	0.10620100000000	-15.44535600000000	68.79499700000000	16.10393800000000	0.45408600000000	0.00000000000000	-0.05602600000000	0.00000000000000	27.77801400000000	0.00000000000000	0.00000000000000	13.49221800000000	0.00000000000000	
17.43993300000000	-51.77190900000000	822.32880899999998	52.53816300000000	0.18039400000000	0.00000000000000	0.10617300000000	-15.55363700000000	73.29734600000000	16.55287500000000	0.45578700000000	0.00000000000000	-0.05663900000000	0.00000000000000	27.66382600000000	0.00000000000000	0.00000000000000	13.92982100000000	0.00000000000000	
17.44159700000000	-52.26057900000000	819.43328099999997	52.25124700000000	0.17974600000000	0.00000000000000	0.10614200000000	-15.49043200000000	77.58738099999999	16.86236300000000	0.45734400000000	0.00000000000000	-0.05723700000000	0.00000000000000	27.54857500000000	0.00000000000000	0.00000000000000	14.25550400000000	0.00000000000000	
17.44326200000000	-52.76948700000000	816.39845900000000	51.94141200000000	0.17909800000000	0.00000000000000	0.10610800000000	-15.27701600000000	81.71165000000001	17.04887600000000	0.45876800000000	0.00000000000000	-0.05782100000000	0.00000000000000	27.43240500000000	0.00000000000000	0.00000000000000	14.48231100000000	0.00000000000000	
17.44493300000000	-53.29869000000000	813.22360700000002	51.60870200000000	0.17844900000000	0.00000000000000	0.10607200000000	-14.93664600000000	85.72432300000000	17.13093100000000	0.46007100000000	0.00000000000000	-0.05839300000000	0.00000000000000	27.31544800000000	0.00000000000000	0.00000000000000	14.62510900000000	0.00000000000000	
17.44659800000000	-53.84813900000000	809.90796699999999	51.25319100000000	0.17779700000000	0.00000000000000	0.10603400000000	-14.49267000000000	89.68223600000000	17.12744300000000	0.46126300000000	0.00000000000000	-0.05895400000000	0.00000000000000	27.19782200000000	0.00000000000000	0.00000000000000	14.69922400000000	0.00000000000000	
17.44826500000000	-54.41767900000000	806.45076100000006	50.87498400000000	0.17714400000000	0.00000000000000	0.10599200000000	-13.96695800000000	93.64054700000000	17.05632800000000	0.46235100000000	0.00000000000000	-0.05950400000000	0.00000000000000	27.07962900000000	0.00000000000000	0.00000000000000	14.71926400000000	0.00000000000000	
17.44993700000000	-55.00704100000000	802.85118699999998	50.47421400000000	0.17648900000000	0.00000000000000	0.10594800000000	-13.37870100000000	97.64925599999999	16.93342600000000	0.46334300000000	0.00000000000000	-0.06004500000000	0.00000000000000	26.96095300000000	0.00000000000000	0.00000000000000	14.69821100000000	0.00000000000000	
17.45161700000000	-55.61584600000000	799.10842500000001	50.05104700000000	0.17583100000000	0.00000000000000	0.10590200000000	-12.74362700000000	101.75069499999999	16.77175900000000	0.46424600000000	0.00000000000000	-0.06057600000000	0.00000000000000	26.84186400000000	0.00000000000000	0.00000000000000	14.64678600000000	0.00000000000000	
17.45326400000000	-56.24359700000000	795.22163499999999	49.60567700000000	0.17517000000000	0.00000000000000	0.10585300000000	-12.07360600000000	105.97800800000000	16.58113400000000	0.46506600000000	0.00000000000000	-0.06109800000000	0.00000000000000	26.72241000000000	0.00000000000000	0.00000000000000	14.57310300000000	0.00000000000000	
17.45493000000000	-56.88967900000000	791.18996100000004	49.13832800000000	0.17450600000000	0.00000000000000	0.10580100000000	-11.37661300000000	110.35456800000000	16.36805900000000	0.46580900000000	0.00000000000000	-0.06161200000000	0.00000000000000	26.60262500000000	0.00000000000000	0.00000000000000	14.48257900000000	0.00000000000000	
17.45660500000000	-57.55335700000000	787.01253099999997	48.64925500000000	0.17383800000000	0.00000000000000	0.10574700000000	-10.65698600000000	114.89419400000000	16.13591000000000	0.46648000000000	0.00000000000000	-0.06211900000000	0.00000000000000	26.48252200000000	0.00000000000000	0.00000000000000	14.37806100000000	0.00000000000000	
17.45826400000000	-58.23377600000000	782.68846199999996	48.13874000000000	0.17316600000000	0.00000000000000	0.10569000000000	-9.91590000000000	119.60201100000000	15.88531000000000	0.46708300000000	0.00000000000000	-0.06261700000000	0.00000000000000	26.36209400000000	0.00000000000000	0.00000000000000	14.26012600000000	0.00000000000000	
17.45993800000000	-58.92995900000000	778.21686299999999	47.60709800000000	0.17249000000000	0.00000000000000	0.10563100000000	-9.15199000000000	124.47577099999999	15.61463000000000	0.46762200000000	0.00000000000000	-0.06310800000000	0.00000000000000	26.24131600000000	0.00000000000000	0.00000000000000	14.12748900000000	0.00000000000000	
17.46160200000000	-59.64080500000000	773.59684200000004	47.05467000000000	0.17181000000000	0.00000000000000	0.10557000000000	-8.36204600000000	129.50744299999999	15.32057500000000	0.46810000000000	0.00000000000000	-0.06359200000000	0.00000000000000	26.12014300000000	0.00000000000000	0.00000000000000	13.97748400000000	0.00000000000000	
17.46327000000000	-60.36509500000000	768.82750599999997	46.48182800000000	0.17112400000000	0.00000000000000	0.10550600000000	-7.54171100000000	134.68492000000001	14.99878300000000	0.46852200000000	0.00000000000000	-0.06406900000000	0.00000000000000	25.99850900000000	0.00000000000000	0.00000000000000	13.80655200000000	0.00000000000000	
17.46493200000000	-61.10148600000000	763.90797199999997	45.88897300000000	0.17043400000000	0.00000000000000	0.10544000000000	-6.68613500000000	139.99366900000001	14.64438700000000	0.46888900000000	0.00000000000000	-0.06453900000000	0.00000000000000	25.87632900000000	0.00000000000000	0.00000000000000	13.61071200000000	0.00000000000000	
